<svg width="619" height="453" viewBox="0 0 619 453" fill="none" xmlns="http://www.w3.org/2000/svg">
<path d="M15.8758 305.109C20.7479 305.395 25.619 305.682 30.5509 305.968C31.0317 306.632 31.5131 307.288 32.0543 307.942C32.5957 307.349 33.1369 306.745 33.6781 306.152C38.4898 306.439 43.3613 306.725 48.2334 306.981C51.3606 310.97 54.1869 314.704 56.7733 318.193C56.7733 324.884 56.7733 331.574 56.7733 338.264C56.7733 338.48 56.653 338.586 56.4731 338.582C54.0675 338.526 51.6614 338.469 49.2554 338.408C48.6545 337.743 48.1129 337.089 47.5717 336.413C47.5717 336.526 47.0303 337.16 45.9471 338.336C42.7603 338.234 39.5722 338.152 36.445 338.06C36.445 337.948 36.445 337.846 36.445 337.733C37.5275 337.763 38.1497 336.056 38.3091 332.566C38.3287 332.127 38.3091 331.677 38.3091 331.216C37.5879 330.122 36.6257 328.884 35.3626 327.554C33.0763 327.472 30.7905 327.387 28.5062 327.298C28.4449 327.296 27.4834 328.444 25.7391 330.776C25.7391 334.663 25.7391 338.531 25.7391 342.408C25.9198 342.408 26.8221 343.339 28.5062 345.15C29.1071 345.161 29.7089 345.181 30.3702 345.19C30.8518 344.588 31.393 343.994 31.9342 343.39C31.9342 343.39 31.9939 343.4 32.0543 343.4C32.5957 344.014 33.1369 344.638 33.6781 345.262C38.3695 345.365 43.0619 345.466 47.8119 345.559C48.2931 345.568 49.4394 347.13 51.6614 349.968C54.9757 354.203 56.7733 356.403 56.7733 356.874C56.7733 363.104 56.7733 369.334 56.7733 375.554C56.7733 381.784 56.7733 388.014 56.7733 394.235C53.7062 398.275 50.8194 401.959 48.2334 405.273C43.4217 405.426 38.6099 405.601 33.7986 405.764C33.1369 405.058 32.5351 404.352 31.9342 403.626C31.9342 403.81 31.393 404.557 30.2501 405.887C25.4987 406.05 20.7479 406.225 15.9959 406.398C12.6279 402.245 9.74114 398.521 7.33594 395.247C7.33594 388.239 7.33594 381.232 7.33594 374.224C7.33594 373.989 7.39634 373.866 7.57634 373.866C9.98154 373.856 12.3877 373.836 14.7933 373.825C15.3345 374.521 15.9362 375.216 16.5371 375.901C17.0783 375.206 17.6197 374.511 18.2213 373.814C21.4094 373.805 24.6567 373.784 27.9045 373.764C27.9045 373.886 27.9045 373.999 27.9045 374.122C26.5813 374.674 25.9198 376.106 25.9198 378.428C25.9198 379.278 25.9198 380.117 25.9198 380.956C27.3633 382.982 28.3255 384.168 28.807 384.516C31.0317 384.485 33.257 384.442 35.4827 384.424C35.6634 384.422 36.5653 383.206 38.3091 380.812C38.3091 377.068 38.3091 373.303 38.3091 369.549C36.3846 367.482 35.4215 366.458 35.3626 366.459C34.7609 366.468 34.2197 366.459 33.6781 366.45C33.0763 367.135 32.4754 367.81 31.9342 368.496C31.3325 367.81 30.7913 367.135 30.2501 366.45C25.3786 366.439 20.5665 366.439 15.7555 366.429C15.6354 366.429 12.8086 362.746 7.33594 355.319C7.33594 348.751 7.33594 342.183 7.33594 335.616C7.33594 329.047 7.33594 322.469 7.33594 315.891C10.3429 311.892 13.2293 308.301 15.8758 305.109ZM61.4047 307.778C70.6055 308.24 79.8083 308.689 89.0701 309.108C89.6121 309.784 90.1533 310.458 90.7546 311.155C91.2958 310.51 91.8975 309.876 92.4985 309.252C101.941 309.651 111.446 310.014 120.947 310.449C121.074 310.454 121.187 310.623 121.187 310.817C121.187 315.646 121.187 320.474 121.187 325.313C121.187 330.142 121.187 334.971 121.187 339.81C121.187 340.034 121.067 340.16 120.947 340.158C118.842 340.12 116.797 340.075 114.752 340.025C114.15 339.38 113.549 338.715 113.008 338.06C113.008 338.193 112.467 338.817 111.384 339.953C108.617 339.902 105.851 339.841 103.144 339.789C103.144 339.677 103.144 339.554 103.144 339.431C104.347 339.073 104.949 337.323 104.949 334.234C104.949 332.802 104.949 331.37 104.949 329.927C103.385 329.886 101.881 329.846 100.378 329.804C100.378 333.968 100.378 338.132 100.378 342.286C100.378 346.449 100.378 350.602 100.378 354.766C100.858 355.472 101.4 356.158 101.941 356.853C101.4 357.549 100.858 358.245 100.378 358.93C100.197 363.176 99.9566 367.411 99.8365 371.646C99.7162 375.881 99.4751 380.118 99.3549 384.352C99.7162 384.158 100.077 383.953 100.498 383.749C103.024 383.442 104.347 382.685 104.347 381.488C104.407 381.488 104.468 381.477 104.588 381.477C104.588 388.771 104.588 396.066 104.588 403.35C104.588 403.554 104.528 403.652 104.347 403.657C100.318 403.764 96.3475 403.861 92.3783 403.963C91.7774 403.339 91.1757 402.705 90.6345 402.081C90.6345 402.235 90.0931 402.909 89.0701 404.055C85.0411 404.158 81.011 404.276 77.0417 404.393C76.8622 404.398 76.8014 404.301 76.8014 404.086C76.8014 396.485 76.8014 388.874 76.8014 381.262C76.8618 381.262 76.9215 381.262 77.0417 381.262C77.403 383.114 78.6654 384.009 80.8907 383.973C81.1909 383.968 81.4925 383.973 81.7934 383.973C81.7934 379.758 81.7934 375.544 81.7934 371.318C81.7934 367.103 81.7934 362.889 81.7934 358.674C81.3118 358.009 80.8311 357.344 80.3495 356.679C80.3495 356.638 80.3495 356.587 80.3495 356.546C81.3118 355.267 81.7926 354.612 81.7934 354.582C81.9123 349.988 82.0337 345.384 82.1539 340.781C82.2737 336.198 82.4547 331.594 82.635 326.99C80.8311 327.707 79.0865 328.423 77.3426 329.139C77.3426 331.041 77.2186 332.948 77.3426 334.847C77.5191 337.548 78.2451 338.899 79.1469 338.919C79.1469 339.052 79.1469 339.175 79.1469 339.288C76.3803 339.226 73.6133 339.155 70.9071 339.083C70.3062 338.418 69.7045 337.733 69.1633 337.057C69.1633 337.19 68.6217 337.835 67.599 339.011C65.4945 338.96 63.449 338.915 61.4047 338.868C61.2241 338.865 61.1635 338.725 61.1635 338.479C61.1635 333.425 61.1635 328.361 61.1635 323.308C61.1635 318.244 61.1635 313.19 61.1635 308.126C61.1635 307.88 61.2241 307.77 61.4047 307.778ZM125.518 310.469C133.818 310.761 142.178 311.053 150.538 311.349C151.139 311.993 151.74 312.638 152.341 313.272C152.341 313.109 152.823 312.495 153.845 311.462C162.266 311.718 170.687 311.907 179.106 312.168C179.29 312.173 179.346 312.29 179.346 312.454C179.346 317.18 179.346 321.896 179.346 326.613C179.346 331.318 179.346 336.035 179.346 340.751C179.346 340.976 179.286 341.09 179.106 341.088C176.64 341.06 174.174 341.017 171.708 340.996C171.106 340.372 170.505 339.738 169.964 339.104C169.423 339.656 168.882 340.219 168.4 340.761C165.212 340.72 162.025 340.679 158.897 340.638C158.897 340.536 158.897 340.434 158.897 340.331C160.1 339.82 160.702 338.377 160.702 336.024C160.702 334.337 160.702 332.648 160.702 330.961C156.612 330.879 152.522 330.787 148.492 330.695C148.492 336.188 148.492 341.672 148.492 347.145C153.063 347.196 157.695 347.22 162.325 347.298C162.51 347.301 162.626 347.452 162.626 347.646C162.626 349.283 162.626 350.92 162.626 352.546C162.626 356.506 162.566 361.989 162.446 369.058C162.325 369.058 162.266 369.058 162.205 369.058C162.205 367.953 161.143 367.046 159.018 366.92C155.476 366.709 151.981 366.91 148.492 366.91C148.492 372.353 148.492 377.785 148.492 383.207C152.522 383.167 156.612 383.136 160.702 383.095C160.702 381.345 160.702 379.606 160.702 377.847C160.702 375.575 160.1 374.215 158.897 373.693C158.897 373.601 158.897 373.489 158.897 373.376C159.078 373.385 159.318 373.368 159.559 373.365C161.603 373.348 164.551 373.304 168.4 373.192C168.4 373.356 169.002 374.03 170.144 375.187C170.144 375.064 170.685 374.388 171.828 373.181C174.234 373.181 176.641 373.143 179.106 373.172C179.288 373.173 179.346 373.314 179.346 373.489C179.346 378.215 179.346 382.931 179.346 387.648C179.346 392.353 179.346 397.08 179.346 401.786C179.346 401.99 179.286 402.079 179.106 402.082C170.686 402.222 162.266 402.359 153.845 402.522C153.244 401.918 152.703 401.305 152.161 400.691C152.161 400.844 151.62 401.489 150.538 402.594C142.178 402.768 133.818 402.956 125.518 403.126C125.338 403.13 125.277 403.044 125.277 402.839C125.277 395.596 125.277 388.353 125.277 381.1C125.337 381.1 125.397 381.1 125.518 381.1C125.518 382.42 126.961 383.197 129.848 383.381C129.848 379.299 129.848 375.217 129.848 371.136C129.848 367.054 129.848 362.962 129.848 358.88C129.307 358.194 128.766 357.519 128.284 356.824C128.766 356.159 129.307 355.473 129.848 354.798C129.848 350.716 129.848 346.624 129.848 342.542C129.848 338.46 129.848 334.368 129.848 330.276C129.788 330.276 129.728 330.276 129.728 330.276C127.262 330.215 125.879 330.961 125.518 332.516C125.397 332.516 125.337 332.516 125.277 332.527C125.277 325.273 125.277 318.02 125.277 310.767C125.277 310.562 125.398 310.465 125.518 310.469ZM192.818 312.536C199.134 312.684 205.448 312.801 211.824 312.925C212.365 313.538 212.967 314.152 213.568 314.766C213.568 314.602 214.049 314.009 215.132 312.986C221.507 313.109 227.944 313.185 234.377 313.334C234.623 313.339 234.678 313.467 234.678 313.62C234.678 320.484 234.678 327.339 234.678 334.183C234.558 334.183 234.438 334.183 234.377 334.183C233.956 332.782 232.212 332.526 229.145 333.426C230.709 340.454 231.911 345.836 232.754 349.58C233.594 353.314 234.137 355.421 234.257 355.902C235.4 356.802 236.001 357.313 236.001 357.437C235.22 358.736 234.775 359.485 234.798 359.656C235.797 366.943 236.663 372.506 237.264 376.322C237.866 380.137 238.227 382.225 238.408 382.572C241.775 382.563 243.399 381.774 243.399 380.199C243.459 380.199 243.519 380.199 243.639 380.199C243.639 387.135 243.639 394.072 243.639 400.998C243.639 401.191 243.579 401.273 243.399 401.274C239.37 401.293 235.34 401.324 231.37 401.366C230.769 400.782 230.228 400.178 229.686 399.585C229.686 399.729 229.145 400.362 228.062 401.406C224.033 401.458 220.002 401.501 216.033 401.55C215.853 401.551 215.793 401.478 215.793 401.284C215.793 394.337 215.793 387.401 215.793 380.455C215.853 380.455 215.913 380.455 216.033 380.455C216.033 381.723 217.478 382.46 220.424 382.654C220.064 380.219 219.702 377.764 219.342 375.309C215.673 376.537 213.688 377.15 213.568 377.15C210.08 376.045 208.215 375.483 207.854 375.483C207.494 377.907 207.132 380.322 206.831 382.726C206.831 382.726 206.893 382.731 206.952 382.726C209.659 382.446 210.982 381.682 210.982 380.475C211.042 380.475 211.162 380.475 211.283 380.475C211.283 387.432 211.283 394.378 211.283 401.335C211.283 401.529 211.221 401.608 210.982 401.611C206.952 401.659 202.982 401.713 199.013 401.775C198.412 401.171 197.81 400.567 197.269 399.964C197.269 400.107 196.788 400.731 195.705 401.805C191.676 401.867 187.645 401.942 183.676 402C183.496 402.001 183.436 401.928 183.436 401.724C183.436 394.654 183.436 387.565 183.436 380.475C183.496 380.475 183.556 380.475 183.676 380.475C183.676 382.091 185.781 382.828 189.932 382.706C190.774 375.135 191.434 369.385 191.796 365.447C192.156 361.518 192.397 359.391 192.397 359.073C192.277 359.073 191.856 358.48 191.254 357.283C192.457 356.219 193.036 355.613 193.059 355.452C193.637 351.48 194.263 347.503 194.863 343.544C195.465 339.575 196.066 335.605 196.668 331.636C196.607 331.636 196.546 331.637 196.487 331.636C194.502 331.596 193.299 332.342 192.818 333.825C192.698 333.836 192.577 333.836 192.518 333.836C192.518 326.828 192.46 319.819 192.518 312.813C192.519 312.61 192.639 312.532 192.818 312.536ZM215.012 334.807C214.499 336.218 213.749 339.074 212.967 343.38C212.186 347.677 211.222 353.446 210.14 360.669C212.184 361.764 213.387 362.316 213.688 362.306C215.733 361.386 216.876 360.792 217.116 360.546C216.936 350.562 216.574 343.421 216.274 339.134C215.974 334.849 215.52 333.406 215.012 334.807ZM247.789 313.293C251.639 313.332 255.548 313.388 259.458 313.426C259.817 313.428 260.54 314.05 261.563 315.247C262.525 314.07 263.247 313.464 263.608 313.467C267.457 313.504 271.306 313.52 275.155 313.569C275.281 313.57 275.396 313.722 275.396 313.886C275.396 320.72 275.396 327.554 275.396 334.388C275.275 334.388 275.215 334.388 275.155 334.388C274.794 332.986 273.471 332.26 271.185 332.26C271.065 338.071 271.005 343.881 270.945 349.692C274.253 349.191 277.561 348.69 280.929 348.188C281.109 348.025 283.515 342.735 288.206 332.301C288.026 332.301 287.905 332.301 287.785 332.301C285.8 332.301 284.537 332.996 284.056 334.408C283.936 334.408 283.876 334.408 283.816 334.408C283.816 327.574 283.757 320.75 283.816 313.917C283.817 313.713 283.936 313.599 284.056 313.599C288.026 313.609 291.995 313.63 295.964 313.641C296.566 314.295 297.168 314.95 297.829 315.584C297.829 315.43 298.37 314.786 299.513 313.651C303.482 313.671 307.452 313.643 311.421 313.661C311.606 313.662 311.662 313.814 311.662 313.979C311.662 320.853 311.662 327.717 311.662 334.582C311.542 334.582 311.482 334.582 311.421 334.582C311.421 333.364 310.162 332.578 307.693 332.342C307.274 332.302 306.851 332.342 306.489 332.342C302.761 340.628 299.932 346.879 298.129 351.074C296.324 355.277 295.423 357.447 295.423 357.569C298.25 364.025 300.6 369.323 302.46 373.437C304.328 377.568 305.768 380.527 306.67 382.337C307.151 382.337 307.633 382.34 308.114 382.337C309.918 382.329 311 381.57 311.421 380.066C311.482 380.066 311.542 380.066 311.662 380.066C311.662 386.941 311.662 393.826 311.662 400.69C311.662 400.885 311.601 400.967 311.421 400.967C307.392 400.976 303.362 400.987 299.392 400.998C298.792 400.404 298.19 399.81 297.649 399.217C297.047 399.821 296.506 400.414 295.964 401.007C291.995 401.018 288.026 401.029 284.056 401.038C283.936 401.038 283.816 400.956 283.816 400.762C283.816 393.928 283.816 387.084 283.816 380.25C283.876 380.25 283.936 380.25 284.056 380.25C284.056 381.304 285.195 382.046 287.364 382.358C287.542 382.383 287.725 382.358 287.905 382.358C287.905 382.296 287.905 382.235 287.905 382.163C284.658 372.342 282.072 366.787 280.207 365.498C277.199 365.877 274.192 366.245 271.185 366.613C271.185 371.871 271.185 377.13 271.185 382.378C271.366 382.378 271.546 382.378 271.726 382.378C273.471 382.378 274.614 381.734 275.155 380.445C275.215 380.445 275.275 380.445 275.396 380.445C275.396 387.227 275.396 394 275.396 400.783C275.396 400.977 275.274 401.059 275.155 401.059C271.185 401.068 267.216 401.099 263.246 401.13C262.645 400.537 262.104 399.954 261.563 399.36C260.961 399.964 260.359 400.557 259.818 401.151C255.789 401.182 251.759 401.213 247.789 401.243C247.61 401.244 247.549 401.161 247.549 400.967C247.549 393.989 247.549 387.022 247.549 380.046C247.609 380.046 247.669 380.046 247.789 380.046C247.789 381.396 248.987 382.264 251.398 382.45C252.177 382.51 252.962 382.439 253.804 382.439C253.563 378.593 253.323 374.736 253.142 370.889C252.962 367.043 252.721 363.176 252.541 359.319C252.06 358.726 251.579 358.122 251.097 357.518C251.097 357.468 251.097 357.426 251.097 357.375C251.579 356.782 252.06 356.188 252.541 355.585C252.541 351.677 252.541 347.759 252.541 343.851C252.541 339.943 252.541 336.035 252.541 332.127C252.3 332.127 252.12 332.127 251.94 332.127C249.474 332.108 248.09 332.904 247.789 334.51C247.669 334.51 247.609 334.51 247.549 334.51C247.549 327.543 247.549 320.577 247.549 313.61C247.549 313.415 247.67 313.292 247.789 313.293ZM316.293 313.958C320.262 313.938 324.232 313.927 328.261 313.917C328.803 314.511 329.405 315.113 330.006 315.717C330.006 315.564 330.548 314.96 331.569 313.896C335.539 313.887 339.509 313.826 343.538 313.855C343.723 313.856 343.839 313.978 343.839 314.142C343.839 320.976 343.839 327.809 343.839 334.643C343.718 334.643 343.598 334.643 343.538 334.643C343.538 333.324 342.035 332.569 339.087 332.393C338.968 332.386 338.847 332.393 338.787 332.402C338.787 337.641 338.787 342.878 338.787 348.116C340.17 348.505 342.515 349.252 345.764 350.357C350.334 348.832 352.68 348.065 352.92 348.065C352.92 342.827 352.92 337.579 352.92 332.33C352.861 332.33 352.8 332.33 352.8 332.33C350.334 332.351 348.771 333.006 348.169 334.285C348.169 334.449 348.169 334.592 348.169 334.745C348.049 334.745 347.988 334.755 347.929 334.755C347.929 327.88 347.929 320.995 347.929 314.121C347.929 313.926 348.05 313.814 348.169 313.813C352.139 313.774 356.108 313.722 360.138 313.67C360.679 314.284 361.28 314.878 361.882 315.471C361.882 315.317 362.363 314.703 363.386 313.64C367.355 313.589 371.384 313.495 375.414 313.486C375.599 313.486 375.655 313.619 375.655 313.782C375.655 320.657 375.655 327.543 375.655 334.417C375.534 334.417 375.475 334.417 375.414 334.417C374.993 332.914 373.67 332.157 371.445 332.177C371.445 336.085 371.445 340.003 371.445 343.901C371.445 347.798 371.445 351.707 371.445 355.604C371.926 356.198 372.407 356.781 372.948 357.374C372.948 357.436 372.948 357.487 372.948 357.538C372.407 358.131 371.926 358.725 371.445 359.308C371.445 363.196 371.445 367.073 371.445 370.949C371.445 374.837 371.445 378.715 371.445 382.592C373.85 382.479 375.174 381.743 375.414 380.351C375.475 380.351 375.534 380.351 375.655 380.351C375.655 387.236 375.655 394.101 375.655 400.976C375.655 401.17 375.594 401.252 375.414 401.252C371.384 401.223 367.355 401.19 363.386 401.16C362.784 400.566 362.243 399.973 361.701 399.359C361.701 399.503 361.16 400.116 360.138 401.139C356.108 401.109 352.139 401.087 348.169 401.058C347.989 401.057 347.929 400.976 347.929 400.782C347.929 393.907 347.929 387.032 347.929 380.147C347.988 380.147 348.049 380.147 348.169 380.147C348.169 381.589 349.61 382.446 352.499 382.541C353.041 382.558 353.642 382.459 354.244 382.408C353.762 376.361 353.341 370.306 352.92 364.269C348.47 365.753 346.124 366.111 345.944 365.395C343.538 365.067 341.132 364.75 338.787 364.413C338.787 370.448 338.787 376.484 338.787 382.51C338.847 382.51 338.968 382.515 339.087 382.51C342.035 382.363 343.538 381.589 343.538 380.279C343.598 380.279 343.718 380.279 343.839 380.279C343.839 387.114 343.839 393.938 343.839 400.761C343.839 400.955 343.718 401.037 343.538 401.037C339.508 401.028 335.539 401.017 331.569 401.006C330.968 400.413 330.427 399.82 329.886 399.227C329.886 399.37 329.344 399.984 328.261 401.006C324.232 400.997 320.263 400.985 316.293 400.976C316.113 400.976 316.053 400.894 316.053 400.7C316.053 393.886 316.053 387.083 316.053 380.259C316.113 380.259 316.173 380.259 316.293 380.259C316.774 381.743 318.098 382.49 320.263 382.5C320.263 382.398 320.322 382.285 320.383 382.182C320.383 378.418 320.383 374.643 320.383 370.879C320.383 367.114 320.383 363.328 320.383 359.554C319.842 358.919 319.3 358.274 318.819 357.63C318.819 357.579 318.819 357.517 318.819 357.467C319.3 356.842 319.842 356.208 320.383 355.584C320.564 351.738 320.743 347.89 320.924 344.044C321.105 340.198 321.285 336.341 321.465 332.484C320.743 332.463 320.263 332.453 320.142 332.453C318.098 332.453 316.835 333.21 316.293 334.714C316.173 334.714 316.113 334.714 316.053 334.714C316.053 327.9 316.053 321.077 316.053 314.254C316.053 314.069 316.173 313.958 316.293 313.958ZM389.668 313.282C394.54 313.19 399.412 313.098 404.283 312.996C404.765 313.538 405.306 314.08 405.847 314.612C406.389 314.06 406.93 313.497 407.471 312.934C412.342 312.842 417.214 312.75 422.086 312.648C425.213 316.075 428.1 319.308 430.626 322.336C430.626 327.83 430.626 333.304 430.626 338.787C430.626 344.26 430.626 349.744 430.626 355.216C431.107 355.861 431.648 356.506 432.19 357.14C431.648 357.805 431.107 358.47 430.626 359.124C430.626 364.587 430.626 370.051 430.626 375.493C430.626 380.946 430.626 386.408 430.626 391.861C427.378 395.718 424.492 399.012 421.966 401.754C417.274 401.703 412.583 401.648 407.952 401.6C407.592 401.596 406.869 400.977 405.847 399.76C405.245 400.353 404.704 400.946 404.163 401.55C399.472 401.488 394.78 401.441 390.089 401.386C389.548 401.379 388.417 399.968 386.24 397.458C382.939 393.65 381.068 391.718 381.068 391.299C381.068 385.948 381.068 380.588 381.068 375.227C381.068 369.876 381.068 364.516 381.068 359.155C380.587 358.552 380.106 357.958 379.685 357.355C379.685 357.313 379.685 357.273 379.685 357.212C380.106 356.628 380.587 356.045 381.068 355.462C381.068 350.081 381.068 344.7 381.068 339.318C381.068 333.948 381.068 328.566 381.068 323.176C384.135 319.512 387.022 316.229 389.668 313.282ZM399.532 335.196C399.8 341.922 399.532 348.648 399.532 355.38C400.013 356.014 400.554 356.659 401.095 357.283C400.554 357.938 400.013 358.593 399.532 359.237C400.133 366.142 400.735 373.068 401.396 379.974C400.314 379.698 400.674 380.557 402.419 382.562C404.644 382.571 406.869 382.582 409.155 382.593C410.718 381.907 411.681 380.853 412.041 379.462C412.041 372.659 412.041 365.866 412.041 359.063C411.56 358.449 411.079 357.846 410.598 357.242C410.598 357.191 410.598 357.15 410.598 357.099C411.079 356.506 411.56 355.912 412.041 355.329C412.041 348.577 411.726 341.807 412.041 335.052C412.148 332.776 411.563 331.82 409.275 331.902C406.991 331.983 404.702 332.07 402.419 331.983C400.127 331.897 399.438 332.848 399.532 335.196ZM437.062 312.198C441.031 312.089 445.001 311.983 448.97 311.871C449.512 312.484 450.053 313.088 450.654 313.692C451.195 313.057 451.797 312.413 452.398 311.779C456.368 311.666 460.336 311.518 464.367 311.411C464.549 311.407 464.608 311.543 464.608 311.748C464.608 318.909 464.608 326.081 464.608 333.242C464.487 333.252 464.427 333.252 464.367 333.252C463.886 331.738 462.863 330.994 461.179 331.032C460.638 331.044 460.096 331.053 459.615 331.063C459.615 335.074 459.615 339.084 459.615 343.083C459.615 347.094 459.615 351.104 459.615 355.114C460.096 355.739 460.578 356.372 461.058 356.987C461.058 357.038 461.058 357.079 461.058 357.12C460.578 357.754 460.096 358.378 459.615 359.002C459.615 363.35 459.615 367.697 459.615 372.035C459.615 376.373 459.676 380.731 459.736 385.069C460.337 384.486 461.54 383.769 463.345 382.972C465.81 382.992 468.276 383.012 470.802 383.033C471.764 381.959 472.726 380.884 473.749 379.81C473.749 372.905 473.749 365.989 473.749 359.074C473.208 358.398 472.667 357.723 472.126 357.048C472.126 357.007 472.126 356.966 472.126 356.915C472.667 356.24 473.208 355.554 473.749 354.869C473.929 350.807 474.111 346.726 474.29 342.654C474.47 338.583 474.651 334.501 474.832 330.419C473.929 330.541 473.034 330.732 472.126 330.787C470.504 330.885 469.419 331.564 468.938 333.017C468.817 333.017 468.757 333.017 468.697 333.017C468.697 325.886 468.64 318.745 468.697 311.605C468.698 311.372 468.818 311.261 468.938 311.257C472.907 311.118 476.877 310.981 480.846 310.838C481.387 311.462 481.928 312.085 482.53 312.7C483.071 312.045 483.673 311.39 484.274 310.735C488.244 310.592 492.213 310.424 496.242 310.316C496.425 310.312 496.484 310.449 496.484 310.654C496.484 317.958 496.484 325.263 496.484 332.567C496.363 332.576 496.303 332.576 496.242 332.576C496.242 331.338 495.164 330.549 493.055 330.315C492.756 330.282 492.454 330.326 492.153 330.336C492.153 334.397 492.153 338.479 492.153 342.541C492.153 346.602 492.153 350.674 492.153 354.735C492.634 355.41 493.176 356.096 493.717 356.771C493.717 356.822 493.717 356.874 493.717 356.904C493.176 357.589 492.634 358.285 492.153 358.981C492.153 364.628 492.153 370.275 492.153 375.923C492.153 381.559 492.153 387.206 492.153 392.853C486.62 399.564 483.673 402.896 483.312 402.889C478.381 402.784 473.448 402.696 468.577 402.593C468.156 402.584 467.494 401.938 466.472 400.669C465.449 401.897 464.788 402.498 464.367 402.49C459.435 402.387 454.503 402.296 449.632 402.214C446.444 398.623 443.617 395.258 441.031 392.127C441.031 386.624 441.031 381.119 441.031 375.605C441.031 370.101 441.031 364.598 441.031 359.083C440.55 358.469 440.069 357.856 439.587 357.232C439.587 357.191 439.587 357.149 439.587 357.099C440.55 355.912 441.031 355.298 441.031 355.226C441.031 351.257 441.031 347.277 441.031 343.308C441.031 339.338 441.031 335.37 441.031 331.39C440.73 331.4 440.489 331.407 440.249 331.41C438.625 331.437 437.542 332.167 437.062 333.589C436.942 333.589 436.881 333.589 436.821 333.589C436.821 326.571 436.762 319.553 436.821 312.535C436.822 312.303 436.942 312.201 437.062 312.198Z" fill="black"/>
<path d="M509.411 309.671C514.284 309.466 519.155 309.262 524.026 309.057C524.508 309.64 525.049 310.203 525.59 310.776C526.131 310.161 526.673 309.548 527.214 308.914C532.025 308.709 536.837 308.485 541.708 308.239C544.896 311.871 547.723 315.288 550.309 318.52C550.309 325.159 550.309 331.799 550.309 338.439C550.309 338.653 550.189 338.772 550.009 338.776C547.603 338.833 545.197 338.889 542.791 338.95C542.19 338.326 541.588 337.702 541.047 337.068C541.047 337.18 540.566 337.835 539.484 339.021C536.296 339.104 533.108 339.175 529.981 339.237C529.981 339.134 529.981 339.032 529.981 338.92C531.003 338.909 531.679 337.231 531.785 333.865C531.799 333.437 531.785 333.007 531.785 332.566C531.124 331.553 530.161 330.428 528.898 329.231C526.613 329.303 524.327 329.358 522.042 329.426C521.922 329.43 521.019 330.571 519.275 332.883C519.275 336.536 519.275 340.188 519.275 343.83C519.456 343.83 520.358 344.669 522.042 346.316C522.643 346.306 523.244 346.306 523.906 346.295C524.387 345.702 524.929 345.119 525.47 344.525C525.47 344.525 525.53 344.525 525.59 344.525C526.131 345.098 526.673 345.671 527.214 346.234C531.905 346.163 536.597 346.081 541.288 345.999C541.828 345.989 542.964 347.488 545.137 350.193C548.441 354.306 550.309 356.444 550.309 356.904C550.309 363.093 550.309 369.273 550.309 375.452C550.309 381.631 550.309 387.81 550.309 393.989C547.242 397.836 544.355 401.324 541.708 404.404C536.897 404.26 532.086 404.117 527.334 403.994C526.673 403.289 526.072 402.572 525.47 401.856C525.47 402.031 524.929 402.705 523.786 403.892C519.035 403.769 514.283 403.646 509.531 403.514C506.164 399.503 503.277 395.953 500.811 392.843C500.811 386.439 500.753 380.034 500.811 373.641C500.812 373.418 500.931 373.293 501.051 373.293C503.457 373.302 505.863 373.324 508.329 373.334C508.87 373.989 509.472 374.623 510.073 375.268C510.614 374.633 511.156 373.999 511.757 373.344C514.945 373.355 518.133 373.375 521.38 373.385C521.38 373.508 521.38 373.621 521.38 373.733C520.117 374.234 519.456 375.584 519.456 377.764C519.456 378.561 519.456 379.36 519.456 380.147C520.899 382.101 521.861 383.237 522.343 383.585C524.568 383.605 526.793 383.637 529.018 383.656C529.138 383.657 530.101 382.521 531.785 380.26C531.785 376.659 531.785 373.037 531.785 369.426C529.92 367.442 528.958 366.47 528.898 366.47C528.296 366.47 527.755 366.47 527.214 366.47C526.613 367.124 526.011 367.759 525.47 368.413C524.868 367.759 524.327 367.114 523.786 366.47C518.915 366.479 514.103 366.479 509.291 366.479C509.171 366.479 506.345 363.093 500.811 356.362C500.811 350.366 500.811 344.361 500.811 338.366C500.811 332.361 500.811 326.356 500.811 320.34C503.878 316.422 506.705 312.873 509.411 309.671ZM554.88 307.584C563.24 307.181 571.6 306.755 579.96 306.264C580.501 306.908 581.103 307.553 581.704 308.208C581.704 308.024 582.246 307.318 583.268 306.08C591.628 305.589 600.046 305.067 608.468 304.617C608.65 304.608 608.769 304.74 608.769 304.924C608.769 310.285 608.769 315.645 608.769 320.996C608.769 326.346 608.769 331.697 608.769 337.047C608.769 337.313 608.648 337.442 608.468 337.446C606.003 337.512 603.537 337.579 601.13 337.651C600.529 336.965 599.928 336.29 599.386 335.605C598.845 336.249 598.304 336.894 597.822 337.518C594.635 337.61 591.447 337.702 588.259 337.794C588.259 337.682 588.259 337.569 588.259 337.457C589.523 336.833 590.125 335.216 590.125 332.607C590.125 330.745 590.125 328.884 590.125 327.011C586.035 327.165 581.945 327.318 577.855 327.471C577.855 333.425 577.855 339.38 577.855 345.323C582.426 345.242 587.057 345.095 591.688 345.037C591.93 345.034 591.989 345.19 591.989 345.406C591.989 347.216 591.989 349.037 591.989 350.838C591.989 355.226 591.929 361.314 591.868 369.15C591.748 369.16 591.628 369.15 591.568 369.15C591.568 367.923 590.571 366.911 588.44 366.777C584.899 366.553 581.343 366.786 577.855 366.786C577.855 372.689 577.855 378.581 577.855 384.485C581.945 384.546 586.035 384.607 590.125 384.679C590.125 382.746 590.125 380.812 590.125 378.879C590.125 376.361 589.523 374.847 588.259 374.254C588.259 374.142 588.259 374.029 588.259 373.906C588.44 373.906 588.681 373.914 588.921 373.917C591.026 373.935 593.974 373.876 597.822 373.794C597.822 373.968 598.364 374.725 599.507 376.045C599.507 375.901 600.108 375.155 601.25 373.814C603.657 373.825 606.063 373.798 608.468 373.845C608.655 373.849 608.769 374.029 608.769 374.224C608.769 379.585 608.769 384.945 608.769 390.295C608.769 395.646 608.769 401.007 608.769 406.357C608.769 406.582 608.648 406.67 608.468 406.664C600.049 406.364 591.628 406.061 583.268 405.764C582.666 405.068 582.125 404.372 581.584 403.687C581.584 403.841 581.042 404.506 579.96 405.641C571.6 405.344 563.24 405.075 554.88 404.812C554.761 404.809 554.64 404.72 554.64 404.506C554.64 396.904 554.64 389.303 554.64 381.692C554.7 381.692 554.76 381.692 554.88 381.692C554.88 383.083 556.384 383.943 559.27 384.209C559.27 379.902 559.27 375.584 559.27 371.267C559.27 366.96 559.27 362.643 559.27 358.325C558.729 357.609 558.188 356.904 557.706 356.178C558.188 355.461 558.729 354.735 559.27 354.019C559.27 349.701 559.27 345.385 559.27 341.078C559.27 336.76 559.27 332.433 559.27 328.116C559.21 328.116 559.15 328.116 559.15 328.116C556.684 328.198 555.241 329.067 554.88 330.724C554.76 330.724 554.7 330.724 554.64 330.724C554.64 323.123 554.582 315.511 554.64 307.901C554.641 307.678 554.761 307.589 554.88 307.584Z" fill="black"/>
<path fill-rule="evenodd" clip-rule="evenodd" d="M138.26 435.257V452.73H135.137V435.257H129.418V432.292H143.979V435.257H138.26ZM474.229 432.292H477.362L486.415 447.484V432.292H489.462V452.716H486.314L477.275 437.741V452.716H474.229V432.292ZM450.729 432.292H452.974L457.095 447.712L460.469 432.292H463.687L458.766 452.73H455.675L451.938 438.448L448.042 452.73H444.938L440.015 432.292H443.249L446.608 447.712L450.729 432.292ZM422.647 452.941C421.213 452.941 419.946 452.63 418.842 452.006C417.744 451.382 416.89 450.504 416.29 449.363C415.69 448.226 415.393 446.906 415.393 445.41V439.618C415.393 438.116 415.69 436.797 416.29 435.66C416.89 434.523 417.744 433.64 418.842 433.017C419.946 432.392 421.213 432.081 422.647 432.081C424.086 432.081 425.358 432.392 426.451 433.017C427.55 433.64 428.399 434.523 428.999 435.66C429.599 436.797 429.896 438.116 429.896 439.618V445.41C429.896 446.906 429.599 448.226 428.999 449.363C428.399 450.504 427.55 451.382 426.451 452.006C425.358 452.63 424.086 452.941 422.647 452.941ZM422.647 449.861C423.448 449.861 424.158 449.684 424.772 449.324C425.387 448.959 425.862 448.451 426.193 447.789C426.528 447.132 426.691 446.369 426.691 445.505V439.518C426.691 438.644 426.528 437.882 426.193 437.229C425.862 436.571 425.387 436.063 424.772 435.703C424.158 435.339 423.448 435.161 422.647 435.161C421.841 435.161 421.131 435.339 420.517 435.703C419.903 436.063 419.428 436.571 419.097 437.229C418.761 437.882 418.598 438.644 418.598 439.518V445.505C418.598 446.369 418.761 447.132 419.097 447.789C419.428 448.451 419.903 448.959 420.517 449.324C421.131 449.684 421.841 449.861 422.647 449.861ZM400.256 435.257V452.73H397.133V435.257H391.414V432.292H405.975V435.257H400.256ZM350.881 432.292H354.014L363.068 447.484V432.292H366.114V452.716H362.967L353.928 437.741V452.716H350.881V432.292ZM338.301 452.73H335.154V432.292H338.301V452.73ZM304.208 435.257V452.73H301.085V435.257H295.366V432.292H309.927V435.257H304.208ZM278.938 452.941C277.954 452.941 277.014 452.846 276.127 452.654C275.234 452.462 274.399 452.179 273.622 451.805C272.845 451.43 272.125 450.965 271.459 450.413L273.243 447.966C274.02 448.638 274.889 449.146 275.853 449.482C276.813 449.823 277.839 449.991 278.938 449.991C280.358 449.991 281.466 449.732 282.254 449.218C283.04 448.701 283.434 447.971 283.434 447.026V447.012C283.434 446.335 283.256 445.803 282.901 445.414C282.546 445.026 282.086 444.733 281.524 444.541C280.958 444.349 280.233 444.181 279.345 444.033C279.317 444.022 279.284 444.018 279.255 444.018C279.221 444.018 279.187 444.012 279.159 444.004L278.924 443.96C277.556 443.725 276.438 443.457 275.57 443.159C274.701 442.856 273.962 442.314 273.349 441.523C272.734 440.732 272.427 439.609 272.427 438.155V438.14C272.427 436.855 272.715 435.761 273.286 434.859C273.857 433.952 274.692 433.266 275.786 432.791C276.884 432.321 278.204 432.081 279.754 432.081C280.483 432.081 281.208 432.163 281.932 432.321C282.651 432.479 283.361 432.719 284.057 433.041C284.757 433.357 285.439 433.751 286.105 434.221L284.475 436.735C283.697 436.173 282.911 435.746 282.114 435.454C281.318 435.165 280.531 435.022 279.754 435.022C278.41 435.022 277.369 435.276 276.63 435.795C275.891 436.308 275.522 437.037 275.522 437.987V438.001C275.522 438.673 275.709 439.205 276.088 439.594C276.467 439.983 276.947 440.271 277.518 440.453C278.089 440.635 278.885 440.827 279.907 441.024C279.946 441.033 279.979 441.038 280.013 441.043C280.047 441.048 280.08 441.052 280.118 441.063C280.162 441.072 280.214 441.082 280.272 441.091C280.33 441.101 280.378 441.11 280.425 441.12C281.682 441.374 282.728 441.676 283.568 442.027C284.407 442.377 285.108 442.943 285.669 443.73C286.231 444.512 286.513 445.577 286.513 446.925V446.954C286.513 448.211 286.216 449.285 285.621 450.188C285.027 451.085 284.163 451.771 283.035 452.236C281.903 452.707 280.54 452.941 278.938 452.941ZM247.79 432.292H249.182H250.909H261.056V435.257H250.909V441.091H259.512V444.07H250.909V449.751H261.056V452.73H250.909H249.182H247.79V432.292ZM224.583 449.808H228.953C230.259 449.808 231.218 449.545 231.842 449.027C232.465 448.509 232.777 447.774 232.777 446.829V446.786C232.777 446.139 232.662 445.582 232.427 445.121C232.192 444.656 231.828 444.301 231.338 444.052C230.844 443.802 230.225 443.677 229.476 443.677H224.583V449.808ZM224.583 440.813H229.476C230.47 440.813 231.223 440.573 231.736 440.103C232.254 439.628 232.514 438.932 232.514 438.016C232.514 437.085 232.23 436.389 231.669 435.919C231.108 435.449 230.278 435.219 229.179 435.219H224.583V440.813ZM223.163 432.292H224.583H229.601C230.921 432.292 232.034 432.518 232.941 432.959C233.842 433.405 234.519 434.039 234.97 434.864C235.421 435.689 235.647 436.677 235.647 437.833C235.647 438.553 235.508 439.22 235.224 439.835C234.941 440.448 234.519 440.966 233.953 441.394C233.387 441.82 232.686 442.108 231.852 442.257C232.696 442.382 233.421 442.669 234.029 443.126C234.639 443.576 235.104 444.147 235.426 444.838C235.752 445.529 235.91 446.288 235.91 447.122V447.165C235.91 448.288 235.671 449.271 235.182 450.111C234.696 450.946 233.991 451.593 233.075 452.049C232.154 452.505 231.079 452.73 229.841 452.73H224.583H223.163H221.478V432.292H223.163ZM181.085 432.292H182.477H184.204H194.351V435.257H184.204V441.091H192.806V444.07H184.204V449.751H194.351V452.73H184.204H182.477H181.085V432.292ZM165.329 432.292H168.438V452.73H165.329V444.128H156.938V452.73H153.819V432.292H156.938V441.163H165.329V432.292Z" fill="black"/>
<path fill-rule="evenodd" clip-rule="evenodd" d="M173.098 255.565H174.197H175.562H183.576V257.907H175.562V262.515H182.355V264.869H175.562V269.354H183.576V271.708H175.562H174.197H173.098V255.565ZM217.659 257.907V271.708H215.191V257.907H210.674V255.565H222.176V257.907H217.659ZM197.7 271.875C196.923 271.875 196.18 271.799 195.479 271.648C194.774 271.496 194.115 271.272 193.501 270.977C192.886 270.681 192.319 270.313 191.792 269.878L193.202 267.945C193.815 268.476 194.501 268.877 195.263 269.142C196.02 269.412 196.832 269.544 197.7 269.544C198.821 269.544 199.697 269.34 200.318 268.934C200.94 268.525 201.25 267.949 201.25 267.202V267.191C201.25 266.657 201.11 266.237 200.829 265.93C200.549 265.622 200.185 265.391 199.742 265.24C199.295 265.088 198.722 264.956 198.022 264.838C197.999 264.832 197.972 264.826 197.949 264.826C197.923 264.826 197.897 264.824 197.874 264.816L197.688 264.782C196.608 264.596 195.725 264.384 195.039 264.149C194.354 263.91 193.769 263.482 193.284 262.857C192.8 262.232 192.557 261.345 192.557 260.197V260.185C192.557 259.17 192.785 258.306 193.235 257.593C193.687 256.877 194.346 256.335 195.21 255.96C196.077 255.588 197.12 255.399 198.343 255.399C198.919 255.399 199.492 255.463 200.064 255.588C200.632 255.713 201.193 255.903 201.743 256.157C202.296 256.407 202.834 256.718 203.361 257.089L202.073 259.075C201.458 258.631 200.837 258.294 200.208 258.063C199.578 257.835 198.957 257.722 198.343 257.722C197.283 257.722 196.46 257.923 195.877 258.332C195.293 258.737 195.001 259.314 195.001 260.064V260.074C195.001 260.606 195.149 261.026 195.448 261.333C195.748 261.64 196.126 261.867 196.578 262.011C197.028 262.156 197.657 262.306 198.465 262.462C198.495 262.47 198.521 262.474 198.548 262.477C198.575 262.481 198.602 262.485 198.632 262.492C198.665 262.5 198.708 262.507 198.753 262.515C198.798 262.523 198.836 262.53 198.874 262.538C199.867 262.739 200.693 262.978 201.356 263.254C202.019 263.531 202.572 263.978 203.016 264.599C203.459 265.217 203.683 266.058 203.683 267.123V267.146C203.683 268.139 203.448 268.987 202.978 269.7C202.508 270.408 201.826 270.95 200.935 271.318C200.041 271.689 198.965 271.875 197.7 271.875Z" fill="black"/>
<path d="M375.345 269.567L380.954 262.118C381.265 261.716 381.503 261.303 381.674 260.867C381.844 260.435 381.931 260.03 381.931 259.651V259.632C381.931 259.037 381.753 258.578 381.397 258.253C381.041 257.927 380.537 257.764 379.889 257.764C379.267 257.764 378.764 257.953 378.385 258.325C378.002 258.7 377.771 259.23 377.691 259.92V259.932H375.148V259.92C375.266 258.973 375.531 258.161 375.94 257.487C376.35 256.813 376.892 256.301 377.555 255.949C378.222 255.6 378.991 255.422 379.866 255.422C380.844 255.422 381.674 255.589 382.363 255.918C383.053 256.248 383.576 256.726 383.932 257.354C384.292 257.983 384.474 258.741 384.474 259.632V259.643C384.474 260.249 384.353 260.874 384.11 261.522C383.871 262.17 383.534 262.784 383.106 263.36L378.6 269.377H384.561V271.73H375.345V269.567Z" fill="black"/>
<path d="M404.208 271.898C402.684 271.898 401.525 271.493 400.733 270.69C399.941 269.882 399.547 268.757 399.547 267.314V259.974C399.547 258.526 399.945 257.397 400.74 256.594C401.536 255.79 402.692 255.389 404.208 255.389C405.735 255.389 406.89 255.79 407.682 256.59C408.474 257.389 408.872 258.518 408.872 259.974V267.314C408.872 268.765 408.474 269.89 407.678 270.694C406.883 271.497 405.727 271.898 404.208 271.898ZM404.208 269.545C404.962 269.545 405.519 269.337 405.879 268.916C406.239 268.5 406.417 267.897 406.417 267.113V260.163C406.417 259.379 406.239 258.78 405.886 258.359C405.53 257.942 404.969 257.734 404.208 257.734C403.454 257.734 402.9 257.942 402.544 258.359C402.188 258.78 402.01 259.379 402.01 260.163V267.113C402.01 267.897 402.188 268.5 402.544 268.916C402.9 269.337 403.454 269.545 404.208 269.545Z" fill="black"/>
<path d="M428.309 271.73H425.858V258.332L423.637 259.574V257.009L425.967 255.588H428.309V271.73Z" fill="black"/>
<path d="M448.336 271.898C447.412 271.898 446.593 271.732 445.888 271.395C445.18 271.057 444.615 270.568 444.191 269.928C443.763 269.288 443.501 268.518 443.406 267.624H445.926C445.987 268.052 446.116 268.408 446.32 268.689C446.525 268.969 446.79 269.182 447.116 269.318C447.438 269.454 447.817 269.523 448.245 269.523C448.95 269.523 449.496 269.333 449.89 268.958C450.28 268.579 450.477 268.041 450.477 267.347V266.893C450.477 266.127 450.299 265.544 449.939 265.131C449.579 264.722 449.071 264.517 448.412 264.517H447.215V262.164H448.412C448.984 262.164 449.424 261.986 449.738 261.629C450.053 261.273 450.212 260.769 450.212 260.121V259.674C450.212 259.076 450.045 258.613 449.712 258.283C449.378 257.954 448.905 257.787 448.291 257.787C447.935 257.787 447.616 257.859 447.332 258.003C447.044 258.151 446.805 258.367 446.608 258.659C446.411 258.95 446.271 259.314 446.18 259.742H443.672C443.804 258.841 444.081 258.064 444.501 257.412C444.918 256.76 445.452 256.264 446.104 255.93C446.756 255.593 447.495 255.423 448.325 255.423C449.723 255.423 450.807 255.79 451.572 256.521C452.338 257.257 452.72 258.287 452.72 259.621V259.943C452.72 260.735 452.508 261.425 452.088 262.012C451.667 262.6 451.068 263.032 450.299 263.305C451.152 263.49 451.811 263.915 452.281 264.581C452.751 265.248 452.986 266.097 452.986 267.124V267.446C452.986 268.386 452.804 269.189 452.444 269.856C452.08 270.523 451.55 271.027 450.849 271.376C450.151 271.724 449.314 271.898 448.336 271.898Z" fill="black"/>
<path d="M0.0551967 189.263L7.68266 177.366L10.6061 176.594C10.4663 176.504 10.2604 175.563 9.98826 173.768L17.616 161.871C17.7517 161.721 17.8753 161.682 18.0159 161.772L36.3096 173.5L36.1489 173.752C34.6107 173.378 33.1907 174.206 31.8899 176.236L31.2072 177.299L51.7131 190.446L54.4313 189.996L55.1569 192.654L75.8173 205.898L83.7861 193.469L80.3423 191.262C77.2627 189.287 75.2251 189.047 74.2648 190.545L73.9843 190.365L80.2659 180.567L82.9656 179.868C82.8541 179.796 82.6535 178.938 82.3655 177.292L87.1216 169.873C87.2753 169.695 87.4356 169.66 87.5903 169.759L112.071 185.453C112.24 185.561 112.26 185.713 112.135 185.908L96.0276 211.034L93.3283 211.733L93.8196 214.477L77.7033 239.616C77.596 239.784 77.4573 239.814 77.2895 239.706L58.7573 227.826L58.9191 227.573C60.1225 228.345 61.6083 227.599 63.3532 225.341L63.9364 224.431L43.6823 211.446C43.276 211.186 42.2215 211.26 40.5317 211.678L39.8321 208.978L19.3263 195.832L19.0663 196.238C17.7109 198.845 17.6209 200.525 18.8251 201.297L18.6641 201.549L0.131196 189.668C-0.0185377 189.532 -0.03467 189.404 0.0551967 189.263ZM63.4024 103.345L76.5849 91.9258L79.1396 91.9783L79.4511 89.4438L92.634 78.0232C97.8705 78.3044 102.679 78.6487 107.069 79.069L129.299 104.731L132.013 105.021L131.944 107.786L154.077 133.334C153.77 138.923 153.42 143.802 153.027 147.97L140.435 158.878C140.071 159.194 139.016 159.271 137.284 159.1L136.979 161.871L124.274 172.878C123.834 173.259 121.785 173.23 118.139 172.78C112.533 172.555 109.583 172.273 109.289 171.934L87.1575 146.385L84.6217 146.074L84.5243 145.96L84.6093 143.444L62.3796 117.782C62.6513 112.509 62.9961 107.701 63.4024 103.345ZM87.4333 113.083L101.248 129.03L103.988 129.297L103.894 132.084L119.776 146.989C118.597 147.635 119.5 148.042 122.457 148.231L128.526 142.972C129.441 141.235 129.59 139.654 128.997 138.232L115.094 122.184L112.534 121.895L112.436 121.781L112.546 119.243L98.7319 103.295C97.5833 101.233 96.0348 101.122 94.0641 102.961L87.8812 108.318C85.6431 109.948 85.4925 111.553 87.4333 113.083ZM135.79 48.3574L151.343 40.3909L153.781 41.0662L154.687 38.6783L170.078 30.795C175.44 32.4379 180.095 33.9391 184.041 35.2994L192.637 52.0806C192.743 52.288 192.693 52.4448 192.486 52.5507L184.687 56.5457L181.995 55.7758C182.056 55.8941 181.781 56.7444 181.18 58.3416L171.117 63.4962L170.957 63.1849C172.071 62.1481 172.001 60.4091 170.759 57.9819L170.114 56.7233C167.465 55.7463 165.928 55.2991 165.527 55.3555L158.379 59.0163C158.173 59.1226 156.845 58.7571 154.421 57.9249L166.429 82.3175L169.026 83.2299L168.27 85.9138L177.882 104.678C177.809 106.396 179.33 106.85 182.453 106.017L191.931 102.639C191.5 99.5711 191.246 97.9822 191.186 97.8642L190.322 96.1763C189.359 94.2975 188.085 93.3065 186.5 93.203L186.189 93.3617L186.038 93.0654L196.145 87.8882L198.83 88.643L199.786 86.024L207.585 82.0291C207.807 81.9531 207.963 82.0031 208.047 82.1663L216.71 99.0808C215.082 104.435 213.581 109.09 212.207 113.045L196.949 120.86L194.265 120.105C193.76 121.783 193.324 122.716 192.909 122.929L177.918 130.607C172.899 129.087 168.326 127.6 164.185 126.153L148.707 95.9347L146.088 94.9778L146.865 92.3386L131.387 62.12C132.893 57.0706 134.357 52.491 135.79 48.3574ZM210.283 14.167L224.376 11.6498L226.726 13.1726C226.696 13.0086 227.206 12.2761 228.255 10.9574L242.315 8.44659C242.534 8.44125 242.665 8.51883 242.695 8.68283L246.516 30.0754L246.188 30.1335C245.943 28.7594 244.051 28.2854 240.529 28.7114L240.202 28.7707L243.131 45.1709C244.825 45.291 247.699 45.5885 251.753 46.0635C256.775 43.5449 259.417 42.2629 259.679 42.2157L256.75 25.8147L256.602 25.8415C253.722 26.3559 252.041 27.3485 251.545 28.8225L251.629 29.2971L251.335 29.3497L247.491 7.82688C247.488 7.62421 247.569 7.5082 247.733 7.47873L261.825 4.96229L264.175 6.48476C264.145 6.32102 264.641 5.59128 265.655 4.27821L279.764 1.75876C279.95 1.75876 280.066 1.83964 280.096 2.00364L283.916 23.3958L283.637 23.445C282.833 21.9683 281.154 21.4566 278.569 21.9185L282.909 46.2253L284.955 47.7511L284.987 47.931L283.596 50.0717L287.911 74.2301C290.719 73.5933 292.137 72.5467 292.141 71.0598L292.419 71.0099L296.236 92.3862C296.271 92.5831 296.19 92.6983 296.011 92.7305L281.902 95.2499L279.555 93.7442C279.582 93.8911 279.09 94.6377 278.072 95.9347L263.979 98.4511C263.783 98.4863 263.667 98.4054 263.632 98.2086L259.788 76.6853L260.083 76.6327C260.352 78.1385 262.204 78.6699 265.65 78.205L267.637 77.699L262.693 59.0909C257.779 61.5562 255.113 62.421 254.7 61.7179L246.171 62.193L249.545 81.0817L249.871 81.0234C253.325 80.2206 254.937 79.1227 254.691 77.7476L255.018 77.6891L258.836 99.0654C258.871 99.2615 258.775 99.3806 258.561 99.4183L244.501 101.929L242.155 100.424C242.181 100.57 241.674 101.32 240.622 102.622L226.529 105.139C226.334 105.174 226.218 105.093 226.183 104.897L222.365 83.5208L222.66 83.4681C223.51 84.9205 225.189 85.4315 227.726 84.9779L227.815 84.6246L223.591 60.9734L221.398 59.2876L221.367 59.1078L222.848 56.8155L219.834 32.4587C218.96 32.5812 218.433 32.6579 218.236 32.6931C215.863 33.1167 214.514 34.169 214.156 35.8539L213.862 35.9061L210.042 14.5143C210.039 14.3117 210.119 14.1961 210.283 14.167ZM308.968 0.00436813L323.06 1.07623L325.127 3.28423C325.14 3.11757 325.871 2.49003 327.321 1.39963L341.412 2.47165C341.609 2.51965 341.702 2.6103 341.69 2.77577L340.042 24.4446L339.744 24.4223C339.343 22.8905 337.941 22.0329 335.537 21.8499L334.277 21.7547L332.43 46.0423L334.116 48.2221L332.12 50.1217L330.26 74.5922L344.981 75.712L345.291 71.6329C345.569 67.9851 344.814 66.0772 343.04 65.9423L343.065 65.6109L354.67 66.493L356.566 68.5385C356.576 68.4054 357.237 67.8223 358.549 66.7874L367.336 67.4561C367.567 67.5071 367.673 67.6318 367.659 67.8143L365.454 96.8105C365.44 97.0093 365.316 97.1001 365.084 97.0826L335.325 94.8198L333.43 92.7751L331.247 94.5099L301.471 92.2455C301.272 92.2309 301.18 92.1231 301.195 91.9243L302.864 69.9739L303.162 69.997C303.054 71.4226 304.416 72.377 307.231 72.8411L308.309 72.9235L310.133 48.933C310.17 48.4522 309.604 47.5595 308.435 46.2695L310.48 44.3737L312.326 20.0857L311.845 20.0494C308.908 20.0929 307.386 20.8106 307.278 22.2366L306.979 22.2143L308.648 0.263645C308.696 0.0671121 308.802 -0.0081652 308.968 0.00436813ZM414.812 16.2269L435.926 24.5523L437.134 27.0654C437.195 26.9107 438.013 26.5547 439.592 25.9977L460.984 34.4329C461.188 34.5489 461.266 34.669 461.204 34.8237L453.27 54.9473L452.945 54.8191C453.002 53.2685 451.145 52.2683 447.367 51.833C445.48 66.906 444.503 74.9568 444.426 76.0163C445.346 77.3988 445.785 78.1434 445.736 78.267C444.37 79.1934 443.65 79.75 443.583 79.9202C440.311 95.1086 438.689 103.12 438.715 103.916C442.443 105.386 444.598 105.359 445.207 103.813L445.47 103.916L437.431 124.303C437.358 124.488 437.229 124.545 437.058 124.478L423.679 119.202L422.471 116.689C422.417 116.827 421.591 117.199 420.013 117.757L406.649 112.486C406.464 112.414 406.408 112.284 406.481 112.099L414.465 91.8514L414.743 91.961C414.255 93.198 415.577 94.5598 418.73 96.035L420.372 88.4263C415.81 87.9852 413.428 87.7249 413.243 87.6519C409.833 85.0566 407.95 83.6706 407.594 83.5307L403.649 90.089L403.789 90.1438C406.909 91.0702 408.696 90.9353 409.159 89.7594L409.484 89.8871L401.5 110.134C401.427 110.32 401.282 110.371 401.065 110.285L387.748 105.033L386.541 102.52C386.486 102.659 385.66 103.031 384.082 103.588L370.718 98.3182C370.532 98.2453 370.476 98.1159 370.549 97.9303L378.588 77.5437L378.867 77.6532C378.257 79.1998 380.29 80.8419 384.982 82.5851C392.538 68.7282 396.438 61.509 396.676 60.9054C396.522 60.8449 396.299 60.0954 396.039 58.6706C397.793 58.1653 398.705 57.8454 398.766 57.6908L411.833 36.2485L411.663 36.1809C409.45 35.3085 407.803 35.499 406.718 36.7523L406.395 36.6246L414.384 16.3618C414.488 16.1879 414.627 16.1535 414.812 16.2269ZM431.075 47.1426C428.835 49.4227 423.721 57.0926 415.744 70.1587C417.634 72.1185 418.726 73.1567 419.066 73.2909C421.709 73.2962 423.209 73.2092 423.548 73.0751C430.822 53.4948 433.32 44.8466 431.075 47.1426ZM499.288 54.7031L510.78 63.7339L511.237 66.4613L513.995 66.261L520.506 71.3768C520.565 71.9736 516.65 85.8355 508.73 113.002L508.848 113.094L533.381 81.8752C533.53 81.7396 533.671 81.7226 533.827 81.8458L540.22 86.8695L540.678 89.5968C542.402 89.3663 543.449 89.4071 543.828 89.7054L555.045 98.5192C555.181 98.6688 555.198 98.8087 555.095 98.9395L541.524 116.209L541.289 116.024C542.131 114.952 541.584 113.443 539.635 111.51L538.641 110.729L523.508 129.986L523.735 132.765L521.002 133.175L505.992 152.275L506.606 152.758C508.925 154.22 510.48 154.449 511.261 153.455L511.496 153.64L498.017 170.792C497.894 170.949 497.754 170.966 497.597 170.842L486.76 162.326C486.381 162.028 486.104 161.007 485.93 159.264L483.151 159.491L476.641 154.374C476.813 152.945 480.256 140.868 486.946 118.171C486.887 117.764 487.347 116.075 488.318 113.116L488.2 113.024L475.924 128.646L476.878 129.396C478.473 130.65 479.951 131.028 481.352 130.565L481.445 130.447L481.719 130.663L468.446 147.553C468.322 147.71 468.17 147.717 467.986 147.573L456.927 138.882L456.489 136.128L453.71 136.355L442.481 127.529C442.298 127.386 442.281 127.246 442.404 127.089L455.976 109.82L456.237 110.025C455.374 111.123 456.011 112.681 458.157 114.685L458.536 114.983L473.546 95.8826L473.299 93.1299L476.053 92.6934L491.185 73.4363L490.414 72.8306C488.637 71.4332 487.063 71.1483 485.707 71.9854L485.472 71.8006L498.869 54.753C499.017 54.6174 499.157 54.6007 499.288 54.7031ZM580.472 125.428L588.359 137.732L587.895 140.458L590.567 141.175L595.036 148.145C594.896 148.728 586.646 160.536 570.242 183.593L570.323 183.719L603.749 162.29C603.934 162.211 604.072 162.241 604.18 162.409L608.568 169.253L608.104 171.98C609.808 172.329 610.784 172.711 611.045 173.117L618.743 185.126C618.824 185.312 618.793 185.45 618.654 185.54L600.162 197.394L600.001 197.142C601.15 196.406 601.127 194.801 599.922 192.334L599.24 191.271L578.621 204.489L577.923 207.188L575.206 206.678L554.756 219.789L555.178 220.447C556.888 222.589 558.281 223.315 559.346 222.634L559.507 222.885L541.142 234.659C540.974 234.766 540.836 234.736 540.729 234.568L533.29 222.965C533.029 222.559 533.104 221.504 533.513 219.8L530.812 219.102L526.344 212.13C526.976 210.837 534.194 200.562 547.969 181.321C548.046 180.917 549.035 179.473 550.924 176.998L550.843 176.871L534.117 187.595L534.772 188.617C535.867 190.325 537.139 191.168 538.614 191.189L538.74 191.109L538.928 191.403L520.844 202.997C520.676 203.105 520.529 203.061 520.404 202.864L512.812 191.023L513.304 188.278L510.605 187.58L502.896 175.556C502.771 175.36 502.801 175.222 502.969 175.115L521.459 163.26L521.639 163.54C520.463 164.294 520.553 165.974 521.922 168.572L522.182 168.979L542.632 155.868L543.303 153.187L546.047 153.679L566.666 140.461L566.137 139.635C564.916 137.731 563.523 136.945 561.968 137.291L561.806 137.039L580.059 125.337C580.244 125.257 580.382 125.288 580.472 125.428Z" fill="black"/>
<path d="M340.308 216.063C339.413 216.513 338.504 217.02 337.581 217.597L336.415 214.866L330.603 201.264L328.319 195.919L329.181 195.675C344.057 191.342 354.235 182.555 354.235 172.419C354.235 168.966 353.05 165.669 350.902 162.651C355.117 166.737 357.531 171.482 357.531 176.545C357.531 186.906 347.423 195.94 332.447 200.705L339.196 213.891C355.911 207.66 367.043 196.548 367.043 183.876C367.043 170.815 355.219 159.411 337.643 153.3C345.035 157.767 349.6 163.904 349.6 170.678C349.6 180.298 340.394 188.633 326.953 192.722L313.874 191.305L308.157 194.695L302.441 191.305L289.362 192.722C275.921 188.633 266.715 180.298 266.715 170.678C266.715 163.904 271.281 157.767 278.673 153.3C261.096 159.41 249.273 170.815 249.273 183.876C249.273 196.548 260.404 207.66 277.119 213.891L283.868 200.705C268.892 195.94 258.784 186.906 258.784 176.545C258.784 171.482 261.198 166.737 265.412 162.651C263.265 165.669 262.081 168.966 262.081 172.419C262.081 182.555 272.259 191.343 287.135 195.675L287.996 195.919L285.712 201.264L279.9 214.866L278.734 217.597C277.811 217.021 276.902 216.513 276.007 216.064C262.108 209.097 251.568 216.863 247.066 221.135C255.93 230.62 267.338 227.275 271.002 225.842C271.764 225.545 272.191 225.33 272.191 225.33C271.978 225.145 271.76 224.968 271.539 224.794C267.192 221.368 261.5 219.983 261.5 219.983C263.922 218.703 269.253 219.041 273.621 220.726C274.743 221.159 275.8 221.681 276.73 222.287L274.079 228.492L290.059 248.005L295.543 232.485L286.633 228.422L297.763 231.007L292.412 250.88L291.757 253.313L291.684 253.585H287.705V268.613C287.906 268.709 288.109 268.8 288.312 268.892C290.108 269.712 292.004 270.421 293.982 271.012C294.749 278.164 300.801 283.734 308.157 283.734C315.514 283.734 321.567 278.164 322.333 271.012C324.311 270.421 326.207 269.712 328.003 268.892C328.206 268.8 328.409 268.709 328.61 268.613V253.585H324.631L324.558 253.313L323.903 250.88L318.551 231.007L329.683 228.422L320.772 232.485L326.256 248.005L342.237 228.492L339.585 222.287C340.515 221.681 341.572 221.159 342.694 220.726C347.062 219.041 352.393 218.703 354.815 219.983C354.815 219.983 349.123 221.368 344.776 224.794C344.555 224.968 344.337 225.145 344.124 225.33C344.124 225.33 344.551 225.545 345.313 225.842C348.976 227.275 360.385 230.62 369.249 221.135C364.747 216.863 354.207 209.097 340.308 216.063ZM293.025 197.104L293.438 195.675L293.902 194.074L293.809 195.675L293.719 197.237L293.383 203.027L293.345 203.671L304.458 216.714L302.635 204.552L307.427 217.516L308.046 219.192L308.157 219.493L308.269 219.192L308.889 217.516L313.68 204.553L311.857 216.714L322.97 203.671L322.932 203.027L322.597 197.237L322.506 195.675L322.413 194.074L322.877 195.675L323.29 197.104L324.897 202.654L325.473 204.644L314.311 217.88L313.319 219.056L308.157 225.176L302.996 219.056L302.004 217.88L290.842 204.644L291.418 202.654L293.025 197.104ZM318.392 267.52C318.392 269.218 317.976 270.818 317.244 272.228C315.54 275.511 312.112 277.755 308.157 277.755C304.203 277.755 300.774 275.511 299.07 272.228C298.339 270.818 297.923 269.218 297.923 267.52C297.923 267.388 297.928 267.256 297.933 267.125C297.94 266.945 297.951 266.765 297.968 266.587C298.041 265.771 298.211 264.983 298.465 264.234L301.304 266.468L304.271 268.804L299.552 267.554C299.696 269.495 300.481 271.257 301.698 272.629C302.119 272.683 302.541 272.733 302.967 272.776L303.202 272.838L303.221 272.799C304.835 272.954 306.481 273.038 308.158 273.038C309.835 273.038 311.481 272.954 313.094 272.799L313.114 272.838L313.348 272.776C313.775 272.733 314.197 272.683 314.618 272.629C315.835 271.257 316.619 269.495 316.763 267.554L312.045 268.804L315.011 266.468L317.85 264.234C318.104 264.983 318.275 265.771 318.348 266.587C318.364 266.765 318.375 266.945 318.382 267.125C318.388 267.256 318.392 267.388 318.392 267.52ZM305.827 232.119L308.157 234.889L310.488 232.119L308.434 255.224L308.404 255.558L308.251 257.288L308.16 258.302L308.157 258.33L308.155 258.302L308.065 257.288L307.911 255.558L307.882 255.224L305.827 232.119ZM314.891 259.817L308.337 266.372L308.157 266.551L307.978 266.372L301.423 259.816L299.909 258.302L298.638 257.031L299.954 257.816L300.77 258.302L302.236 259.176L308.157 262.705L314.079 259.176L315.545 258.302L316.361 257.816L317.677 257.031L314.891 259.817ZM294.29 266.16L291.878 265.521V259.047L295.891 262.207C295.17 263.42 294.626 264.749 294.29 266.16ZM320.424 262.207L324.437 259.047V265.521L322.025 266.16C321.689 264.749 321.144 263.42 320.424 262.207ZM284.647 223.12L284.353 216.186L284.271 214.239L287.488 216.954L298.945 226.62L300.112 227.605L298.783 227.22L284.647 223.12ZM331.667 223.12L317.532 227.22L316.204 227.605L317.371 226.62L328.827 216.954L332.044 214.239L331.961 216.186L331.667 223.12Z" fill="black"/>
<path fill-rule="evenodd" clip-rule="evenodd" d="M123.656 265.079L124.941 260.555C125.06 260.137 125.061 259.739 124.951 259.362C124.837 258.983 124.612 258.651 124.282 258.368C123.955 258.085 123.546 257.868 123.052 257.718C122.561 257.579 122.099 257.545 121.677 257.614C121.251 257.682 120.89 257.848 120.594 258.11C120.298 258.373 120.088 258.72 119.968 259.143L118.683 263.666L123.656 265.079ZM115.317 264.605L115.815 262.852L117.123 258.243C117.416 257.213 117.894 256.374 118.562 255.718C119.223 255.064 120.023 254.64 120.952 254.442C121.881 254.244 122.877 254.3 123.938 254.601C125.007 254.905 125.887 255.386 126.573 256.043C127.263 256.706 127.714 257.49 127.938 258.394C128.03 258.777 128.078 259.171 128.08 259.574L137.032 257.493L136.011 261.089L127.36 262.951L126.525 265.893L134.041 268.028L133.191 271.021L114.965 265.845L115.317 264.605ZM490.753 258.602L492.038 263.125C492.157 263.544 492.364 263.883 492.656 264.147C492.953 264.409 493.318 264.573 493.748 264.64C494.174 264.709 494.637 264.679 495.136 264.546C495.627 264.407 496.038 264.193 496.36 263.912C496.687 263.63 496.907 263.3 497.021 262.921C497.135 262.542 497.131 262.136 497.01 261.713L495.726 257.19L490.753 258.602ZM498.595 256.375L499.904 260.984C500.196 262.014 500.23 262.98 500.008 263.888C499.788 264.792 499.331 265.573 498.644 266.23C497.958 266.887 497.081 267.362 496.021 267.664C494.952 267.967 493.95 268.02 493.021 267.822C492.086 267.621 491.289 267.191 490.624 266.539C490.344 266.262 490.097 265.952 489.883 265.61L483.36 272.086L482.339 268.49L488.72 262.359L487.885 259.417L480.369 261.551L479.519 258.558L497.745 253.382L498.097 254.622L498.595 256.375ZM489.459 233.066L490.391 235.127L476.068 249.406L474.689 246.356L477.451 243.738L474.45 237.1L470.661 237.447L469.277 234.385L489.459 233.066ZM479.738 241.568L485.522 236.084L477.588 236.812L479.738 241.568ZM461.81 216.086L463.988 219.483C464.576 220.4 465.201 220.955 465.864 221.158C466.533 221.362 467.214 221.238 467.906 220.794L467.94 220.772C468.407 220.472 468.752 220.13 468.977 219.738C469.2 219.346 469.286 218.911 469.231 218.429C469.172 217.95 468.971 217.44 468.626 216.901L466.27 213.227L461.81 216.086ZM468.728 211.651L471.084 215.325C471.547 216.047 472.078 216.488 472.668 216.643C473.264 216.799 473.893 216.66 474.559 216.233C475.214 215.813 475.588 215.293 475.666 214.673C475.749 214.055 475.543 213.354 475.041 212.571L472.784 209.051L468.728 211.651ZM474.426 206.16L475.261 207.463L477.679 211.234C478.339 212.263 478.725 213.245 478.839 214.181C478.951 215.112 478.802 215.968 478.385 216.742C477.971 217.52 477.315 218.193 476.413 218.771C475.83 219.145 475.226 219.374 474.603 219.456C473.978 219.535 473.36 219.451 472.748 219.205C472.136 218.959 471.566 218.548 471.033 217.971C471.365 218.703 471.516 219.425 471.48 220.134C471.447 220.841 471.239 221.497 470.865 222.091C470.487 222.687 469.97 223.198 469.304 223.625L469.27 223.646C468.387 224.212 467.494 224.516 466.597 224.558C465.701 224.594 464.844 224.368 464.03 223.864C463.216 223.368 462.493 222.628 461.86 221.64L459.322 217.681L458.487 216.379L457.643 215.062L473.582 204.843L474.426 206.16ZM446.762 201.053C446.169 200.368 445.665 199.65 445.25 198.9C444.831 198.144 444.518 197.376 444.303 196.591C444.088 195.807 443.971 195.021 443.952 194.231L446.916 193.852C446.936 194.804 447.122 195.725 447.473 196.626C447.828 197.524 448.336 198.355 448.996 199.118C449.825 200.075 450.64 200.669 451.436 200.903C452.236 201.134 452.949 200.98 453.571 200.442L453.581 200.432C454.021 200.051 454.269 199.631 454.324 199.172C454.376 198.709 454.3 198.234 454.092 197.75C453.884 197.265 453.573 196.676 453.162 195.991C453.152 195.965 453.137 195.942 453.12 195.922C453.102 195.902 453.088 195.879 453.078 195.853L452.957 195.652C452.285 194.558 451.786 193.608 451.472 192.804C451.152 192 451.084 191.141 451.266 190.225C451.448 189.308 452.055 188.406 453.076 187.522L453.087 187.513C453.994 186.727 454.941 186.26 455.938 186.107C456.932 185.958 457.935 186.125 458.939 186.612C459.944 187.094 460.918 187.879 461.864 188.971C462.307 189.482 462.695 190.045 463.023 190.661C463.354 191.274 463.625 191.926 463.84 192.616C464.052 193.303 464.193 194.022 464.26 194.763L461.335 195.304C461.253 194.416 461.07 193.599 460.782 192.854C460.49 192.108 460.107 191.457 459.63 190.906C458.85 190.006 458.077 189.452 457.317 189.24C456.551 189.028 455.869 189.184 455.264 189.708L455.254 189.716C454.804 190.106 454.558 190.542 454.523 191.031C454.488 191.514 454.573 191.999 454.778 192.486C454.985 192.977 455.321 193.622 455.786 194.424C455.802 194.456 455.816 194.486 455.833 194.512C455.85 194.538 455.867 194.565 455.884 194.598C455.909 194.64 455.937 194.687 455.956 194.729C455.978 194.775 456 194.82 456.028 194.867C456.622 195.905 457.05 196.827 457.317 197.637C457.584 198.441 457.618 199.281 457.407 200.158C457.2 201.032 456.619 201.881 455.661 202.711L455.641 202.728C454.748 203.502 453.804 203.955 452.809 204.082C451.811 204.212 450.797 204.019 449.769 203.511C448.743 202.999 447.74 202.181 446.762 201.053ZM444.219 174.751L433.212 186.295L430.961 184.148L441.968 172.604L438.159 168.972L440.217 166.814L450.077 176.214L448.018 178.373L444.219 174.751ZM418.51 160.207L422.342 162.932C422.697 163.185 423.07 163.319 423.463 163.342C423.858 163.361 424.246 163.261 424.624 163.044C424.999 162.831 425.341 162.518 425.647 162.103C425.943 161.687 426.13 161.263 426.206 160.842C426.284 160.418 426.249 160.022 426.101 159.655C425.953 159.289 425.696 158.974 425.337 158.72L421.505 155.995L418.51 160.207ZM421.748 152.508L423.233 153.565L427.138 156.341C428.011 156.962 428.641 157.693 429.036 158.541C429.43 159.383 429.562 160.279 429.438 161.221C429.313 162.163 428.926 163.083 428.288 163.981C427.644 164.886 426.896 165.555 426.047 165.981C425.191 166.41 424.301 166.572 423.374 166.48C422.982 166.439 422.596 166.352 422.216 166.219L421.178 175.352L418.132 173.186L419.274 164.41L416.781 162.638L412.253 169.005L409.718 167.202L420.698 151.761L421.748 152.508ZM394.287 158C393.119 157.328 392.234 156.487 391.636 155.476C391.034 154.464 390.754 153.364 390.791 152.166C390.827 150.971 391.19 149.77 391.881 148.568L394.555 143.917C395.249 142.711 396.105 141.794 397.119 141.162C398.134 140.53 399.227 140.216 400.405 140.226C401.579 140.235 402.752 140.576 403.919 141.247C405.083 141.916 405.967 142.758 406.573 143.773C407.175 144.786 407.457 145.891 407.418 147.083C407.378 148.276 407.012 149.475 406.318 150.681L403.644 155.331C402.953 156.534 402.101 157.454 401.091 158.087C400.078 158.725 398.982 159.034 397.805 159.023C396.623 159.01 395.45 158.669 394.287 158ZM395.831 155.314C396.447 155.669 397.068 155.846 397.695 155.843C398.321 155.844 398.904 155.667 399.448 155.318C399.988 154.967 400.445 154.466 400.822 153.811L403.587 149.003C403.964 148.348 404.169 147.697 404.202 147.05C404.23 146.404 404.092 145.807 403.777 145.266C403.462 144.727 402.995 144.28 402.379 143.925C401.759 143.569 401.142 143.393 400.521 143.394C399.9 143.396 399.314 143.577 398.77 143.926C398.227 144.28 397.768 144.785 397.391 145.44L394.626 150.249C394.25 150.904 394.047 151.551 394.015 152.194C393.988 152.84 394.128 153.434 394.439 153.971C394.748 154.513 395.21 154.958 395.831 155.314ZM373.539 137.115L377.669 138.744C378.141 138.93 378.594 138.98 379.03 138.903C379.468 138.822 379.861 138.624 380.217 138.306C380.571 137.987 380.849 137.575 381.049 137.067C381.256 136.541 381.338 136.044 381.3 135.57C381.262 135.097 381.11 134.683 380.841 134.324C380.57 133.968 380.205 133.696 379.733 133.51L375.603 131.881L373.539 137.115ZM375.196 128.514L376.697 129.106L380.745 130.702C381.819 131.126 382.678 131.723 383.32 132.497C383.962 133.266 384.345 134.148 384.475 135.14C384.598 136.135 384.45 137.165 384.026 138.241C383.602 139.316 383.007 140.17 382.241 140.804C381.471 141.437 380.59 141.816 379.596 141.94C378.602 142.06 377.567 141.91 376.493 141.486L372.445 139.889L369.751 146.72L366.857 145.578L373.803 127.965L375.196 128.514ZM349.702 141.02C348.818 140.816 347.989 140.534 347.211 140.172C346.428 139.808 345.721 139.372 345.086 138.865C344.45 138.358 343.892 137.791 343.412 137.165L345.583 135.112C346.16 135.87 346.853 136.504 347.668 137.025C348.483 137.542 349.383 137.913 350.366 138.14C351.6 138.425 352.608 138.426 353.389 138.144C354.171 137.86 354.657 137.315 354.842 136.514L354.845 136.501C354.976 135.933 354.928 135.448 354.702 135.045C354.471 134.64 354.13 134.301 353.676 134.032C353.223 133.764 352.625 133.47 351.889 133.159C351.866 133.145 351.84 133.135 351.814 133.129C351.788 133.122 351.763 133.112 351.739 133.097L351.523 133.006C350.336 132.518 349.373 132.045 348.646 131.581C347.913 131.119 347.352 130.466 346.959 129.618C346.566 128.77 346.526 127.684 346.829 126.367L346.832 126.354C347.102 125.185 347.591 124.249 348.307 123.538C349.022 122.832 349.931 122.376 351.03 122.178C352.126 121.975 353.375 122.035 354.783 122.36C355.441 122.512 356.087 122.739 356.714 123.043C357.343 123.343 357.947 123.711 358.527 124.141C359.103 124.57 359.64 125.068 360.131 125.629L358.087 127.789C357.498 127.119 356.868 126.568 356.197 126.135C355.52 125.705 354.828 125.404 354.118 125.24C352.957 124.972 352.007 124.981 351.268 125.257C350.524 125.537 350.064 126.065 349.884 126.845L349.882 126.858C349.748 127.438 349.807 127.935 350.066 128.351C350.322 128.761 350.677 129.103 351.129 129.376C351.586 129.65 352.237 129.974 353.086 130.348C353.118 130.364 353.147 130.38 353.176 130.391C353.205 130.402 353.235 130.414 353.268 130.431C353.313 130.45 353.363 130.471 353.403 130.494C353.448 130.518 353.492 130.542 353.543 130.563C354.634 131.052 355.523 131.544 356.216 132.042C356.905 132.534 357.428 133.192 357.774 134.025C358.121 134.854 358.153 135.882 357.868 137.117L357.861 137.142C357.595 138.294 357.1 139.216 356.371 139.905C355.641 140.598 354.709 141.04 353.578 141.235C352.449 141.426 351.157 141.356 349.702 141.02ZM317.232 128.634C317.116 128.491 317.005 128.347 316.897 128.204C316.682 128.302 316.487 128.426 316.309 128.577C315.723 129.072 315.396 129.809 315.322 130.784C315.257 131.626 315.496 132.299 316.046 132.805C316.596 133.314 317.398 133.607 318.453 133.688C319.378 133.758 320.2 133.58 320.922 133.159L317.232 128.634ZM315.578 125.994C315.332 125.446 315.145 124.89 315.019 124.329C314.852 123.59 314.802 122.842 314.86 122.08C314.986 120.426 315.535 119.18 316.508 118.345C317.481 117.509 318.791 117.155 320.445 117.28C322.093 117.406 323.332 117.936 324.166 118.878C324.999 119.815 325.353 121.081 325.232 122.672L325.202 123.062L322.1 122.826L322.13 122.436C322.188 121.665 322.056 121.058 321.729 120.609C321.402 120.161 320.908 119.914 320.248 119.864C319.548 119.811 318.986 119.995 318.561 120.422C318.136 120.844 317.893 121.472 317.829 122.306C317.793 122.779 317.852 123.306 318.004 123.874C318.157 124.443 318.402 125.032 318.735 125.637C319.068 126.246 319.471 126.856 319.946 127.468L322.799 131.062C322.859 130.943 322.917 130.82 322.973 130.693C323.43 129.653 323.713 128.4 323.825 126.929L326.799 127.155C326.643 129.211 326.184 130.96 325.42 132.39C325.211 132.785 324.979 133.152 324.727 133.491L327.48 136.959L323.792 136.679L322.706 135.346C322.576 135.425 322.443 135.501 322.308 135.572C320.993 136.266 319.443 136.544 317.662 136.409C316.456 136.317 315.444 136.026 314.626 135.536C313.802 135.05 313.198 134.385 312.812 133.539C312.422 132.694 312.274 131.702 312.361 130.559C312.478 129.021 313.006 127.818 313.95 126.958C314.415 126.536 314.958 126.215 315.578 125.994ZM290.025 120.867L291.234 136.772L288.132 137.008L286.923 121.103L281.676 121.502L281.45 118.528L295.033 117.495L295.259 120.469L290.025 120.867ZM255.898 123.846L259.198 123.085L269.983 134.973L266.832 121.323L269.777 120.643L274.033 139.079L270.711 139.845L259.996 128.166L263.097 141.603L260.153 142.282L255.898 123.846ZM235.1 130.862L237.204 130.032L250.765 145.037L247.652 146.265L245.171 143.379L238.394 146.051L238.556 149.852L235.43 151.084L235.1 130.862ZM243.117 140.987L237.922 134.943L238.26 142.902L243.117 140.987ZM212.616 150.696L216.692 148.352C217.07 148.135 217.348 147.852 217.533 147.505C217.716 147.153 217.786 146.759 217.747 146.325C217.71 145.895 217.569 145.454 217.319 145.002C217.065 144.559 216.758 144.213 216.407 143.968C216.054 143.72 215.68 143.587 215.285 143.568C214.89 143.549 214.497 143.652 214.116 143.871L210.039 146.214L212.616 150.696ZM206.973 144.538L208.553 143.629L212.706 141.241C213.635 140.707 214.563 140.44 215.498 140.436C216.428 140.429 217.297 140.683 218.101 141.19C218.905 141.696 219.579 142.432 220.128 143.387C220.682 144.351 220.977 145.309 221.01 146.259C221.042 147.215 220.818 148.092 220.347 148.896C220.146 149.235 219.905 149.549 219.626 149.839L227.491 154.596L224.25 156.459L216.754 151.756L214.102 153.281L217.997 160.055L215.3 161.605L205.856 145.18L206.973 144.538ZM200.354 171.836C199.195 172.66 198.039 173.144 196.894 173.282C195.745 173.422 194.648 173.215 193.607 172.664C192.565 172.111 191.611 171.23 190.751 170.02L183.748 160.172L186.287 158.366L193.342 168.287C194.058 169.294 194.869 169.89 195.782 170.07C196.695 170.249 197.625 170.008 198.574 169.333C199.53 168.653 200.07 167.849 200.201 166.927C200.334 166.003 200.041 165.039 199.326 164.032L192.271 154.111L194.806 152.308L201.809 162.157C202.67 163.366 203.193 164.555 203.368 165.722C203.548 166.887 203.384 167.991 202.873 169.03C202.36 170.071 201.52 171.007 200.354 171.836ZM167.758 174.701L169.396 173.14L187.608 181.937L185.186 184.246L181.801 182.505L176.528 187.532L178.109 190.993L175.677 193.312L167.758 174.701ZM178.997 181.064L171.91 177.419L175.219 184.666L178.997 181.064ZM155.198 193.02L167.74 202.876L165.817 205.322L153.275 195.467L150.024 199.604L147.679 197.762L156.096 187.051L158.441 188.893L155.198 193.02ZM154.295 222.149C153.806 222.912 153.261 223.598 152.658 224.209C152.052 224.824 151.403 225.342 150.712 225.77C150.02 226.198 149.299 226.533 148.548 226.774L147.345 224.039C148.253 223.751 149.084 223.312 149.848 222.719C150.61 222.125 151.262 221.403 151.807 220.554C152.49 219.488 152.83 218.539 152.829 217.709C152.823 216.876 152.474 216.235 151.782 215.792L151.771 215.785C151.282 215.471 150.808 215.352 150.353 215.43C149.894 215.511 149.46 215.718 149.054 216.054C148.648 216.391 148.171 216.855 147.63 217.444C147.609 217.461 147.59 217.481 147.576 217.504C147.562 217.526 147.544 217.546 147.522 217.564L147.363 217.737C146.504 218.69 145.734 219.438 145.052 219.967C144.371 220.501 143.567 220.809 142.636 220.894C141.706 220.978 140.669 220.651 139.532 219.922L139.521 219.916C138.511 219.268 137.794 218.492 137.366 217.579C136.942 216.668 136.818 215.659 137.001 214.557C137.179 213.457 137.656 212.3 138.436 211.084C138.8 210.516 139.231 209.984 139.729 209.495C140.223 209.004 140.772 208.559 141.373 208.158C141.971 207.76 142.621 207.422 143.314 207.148L144.66 209.8C143.831 210.13 143.1 210.537 142.466 211.024C141.834 211.515 141.317 212.066 140.924 212.679C140.281 213.682 139.969 214.58 139.981 215.369C139.994 216.164 140.337 216.774 141.01 217.206L141.021 217.213C141.522 217.535 142.01 217.647 142.489 217.542C142.962 217.439 143.403 217.22 143.812 216.886C144.224 216.548 144.748 216.044 145.386 215.371C145.412 215.346 145.437 215.324 145.457 215.301C145.477 215.277 145.498 215.253 145.525 215.228C145.559 215.191 145.595 215.151 145.63 215.121C145.668 215.087 145.705 215.053 145.742 215.013C146.569 214.15 147.333 213.478 148.034 212.993C148.73 212.51 149.526 212.239 150.427 212.194C151.323 212.145 152.303 212.462 153.369 213.146L153.391 213.16C154.387 213.798 155.088 214.575 155.491 215.493C155.899 216.414 156.001 217.441 155.804 218.571C155.604 219.699 155.101 220.892 154.295 222.149ZM123.68 239.946L124.211 238.772L124.961 237.111L128.797 228.627L131.514 229.855L127.679 238.34L132.284 240.421L135.53 233.241L138.247 234.469L135.001 241.65L139.496 243.682L143.332 235.197L146.049 236.426L142.214 244.91L141.463 246.571L140.932 247.745L123.68 239.946Z" fill="#1A1A18"/>
</svg>
